<svg width="256" height="256" viewBox="0 0 256 256" fill="none" xmlns="http://www.w3.org/2000/svg">
<path d="M183.962 160.196C183.962 159.503 183.95 158.81 183.933 158.117C183.894 156.638 183.853 155.154 183.492 153.712C183.436 153.466 183.319 153.24 183.151 153.048C182.981 152.858 182.767 152.71 182.521 152.618C182.277 152.525 182.012 152.494 181.754 152.523C181.493 152.552 181.245 152.642 181.031 152.788C180.244 153.296 179.658 153.96 179.263 154.777C175.17 163.302 169.96 171.627 162.296 177.734C155.05 183.508 143.687 185.644 134.401 185.196C118.788 184.445 104.645 175.891 95.926 163.886C88.2396 153.303 84.3952 140.389 83.9351 127.377C83.9667 125.813 84.0398 124.252 84.1566 122.695C84.6704 116.583 85.9169 110.563 87.8501 104.877C94.2387 86.0743 107.997 71.9119 128.597 69.1442C152.956 65.8851 166.323 81.0981 176.488 100.032C177.191 101.348 178.063 102.253 179.1 102.744C179.363 102.868 179.655 102.922 179.947 102.902C180.239 102.883 180.522 102.793 180.763 102.637C181.006 102.481 181.199 102.267 181.325 102.019C181.452 101.769 181.506 101.492 181.484 101.214C181.089 96.1117 180.97 90.9994 180.534 85.9016C180.089 80.6968 179.536 75.4969 178.947 70.3043C178.735 68.4875 178.353 67.1571 177.8 66.3107C174.674 61.4805 163.15 58.1777 157.02 56.7792C118.581 48.0137 76.6261 62.7939 63.9852 100.993C61.0709 109.793 59.8146 118.607 60.0726 127.117C59.9679 130.546 60.1092 133.934 60.4817 137.264C63.693 169.385 86.3966 196.362 121.809 202.233C140.581 205.349 161.675 203.821 178.046 193.302C179.358 192.463 180.943 190.479 181.094 189.058C181.588 184.308 182.1 179.558 182.686 174.821C183.025 172.075 183.551 169.343 183.745 166.585C183.896 164.46 183.967 162.329 183.962 160.199V160.196Z" fill="#111111"/>
<path d="M141.817 128.961C141.817 133.796 137.895 137.717 133.06 137.717C128.224 137.717 124.302 133.796 124.302 128.961C124.302 124.126 128.224 120.205 133.06 120.205C137.895 120.205 141.817 124.126 141.817 128.961Z" fill="#FF5500"/>
</svg>
