<?xml version="1.0" encoding="UTF-8"?>
<svg id="Layer_1" data-name="Layer 1" xmlns="http://www.w3.org/2000/svg" version="1.1" viewBox="0 0 135 98">
  <defs>
    <style>
      .cls-1 {
        fill: #000;
        stroke-width: 0px;
      }
    </style>
  </defs>
  <path class="cls-1" d="M22.7,11.4h0c0-7.2-3.7-10.9-10.6-10.9H1C.5.5,0,1,0,1.5v33.7c0,.5.4.9.9.9h2.5c.5,0,.9-.4.9-.9v-13h4.7l8.4,13.5c.2.3.5.4.8.4h2.8c.3,0,.6-.2.8-.5.2-.3.2-.6,0-.9l-7.8-12.6c5.7-.6,8.8-4.3,8.8-10.7ZM4.4,4.6h7.7c4,0,6.4,1.1,6.4,6.8s-2.3,6.7-6.4,6.7h-7.7V4.6Z"/>
  <path class="cls-1" d="M58.8.5h-20.5c-.5,0-.9.4-.9.9v2.2c0,.5.4.9.9.9h8.1v27.5h-8.1c-.5,0-.9.4-.9.9v2.2c0,.5.4.9.9.9h20.5c.5,0,.9-.4.9-.9v-2.2c0-.5-.4-.9-.9-.9h-8.2V4.6h8.2c.5,0,.9-.4.9-.9V1.5c0-.5-.4-.9-.9-.9Z"/>
  <path class="cls-1" d="M87.3,16.2l-1.6-.5c-3.7-1.2-7.2-2.3-7.2-6.4s2.2-5.3,6.5-5.3h.3c5,0,7.3,2.2,7.4,7.2,0,.5.4.9.9.9h2.4c.2,0,.5,0,.7-.3.2-.2.3-.4.3-.7-.1-7.2-4.3-11.2-11.7-11.2h-.3c-6.6,0-10.8,3.5-10.8,9.3,0,7,6.1,9,10.1,10.3l.5.2c.4.1.8.3,1.2.4,3.8,1.2,7.5,2.3,7.5,6.7s-2.5,5.7-7.5,5.7h-.2c-5.7,0-8-2.1-8.1-7.3,0-.5-.4-.9-.9-.9h-2.4c-.2,0-.5.1-.7.3-.2.2-.3.4-.3.7.1,7.3,4.5,11.3,12.3,11.3h.2c7.3,0,11.8-3.7,11.8-9.8s-6.3-9.4-10.5-10.7h0Z"/>
  <path class="cls-1" d="M123.1,4h.2c5.2,0,7.4,2.5,7.5,8.4,0,.5.4.9.9.9h2.4c.2,0,.5,0,.6-.3.2-.2.3-.4.3-.7-.1-10.2-6.5-12.4-11.7-12.4h-.2c-5.3,0-11.7,2.2-11.7,12.7v11c0,10.6,6.4,12.8,11.7,12.8h.2c5.3,0,11.6-2.2,11.7-12.4,0-.2,0-.5-.3-.7-.2-.2-.4-.3-.6-.3h-2.4c-.5,0-.9.4-.9.9,0,5.9-2.3,8.4-7.5,8.4h-.2c-5.3,0-7.5-2.5-7.5-8.7v-11.1c0-6.1,2.2-8.6,7.5-8.6h0Z"/>
  <path class="cls-1" d="M22.9,93.4H4.9l18.6-27.5c.1-.2.2-.3.2-.5v-2.6c0-.5-.4-.9-.9-.9H1.9c-.5,0-.9.4-.9.9v2.2c0,.5.4.9.9.9h16.9L.2,93.5c-.1.2-.2.3-.2.5v2.5c0,.5.4.9.9.9h22c.5,0,.9-.4.9-.9v-2.2c0-.5-.4-.9-.9-.9h0Z"/>
  <path class="cls-1" d="M58.6,61.9h-20.1c-.5,0-.9.4-.9.9v33.7c0,.5.4.9.9.9h20.1c.5,0,.9-.4.9-.9v-2.2c0-.5-.4-.9-.9-.9h-16.8v-11.8h12.8c.5,0,.9-.4.9-.9v-2.2c0-.5-.4-.9-.9-.9h-12.8v-11.6h16.8c.5,0,.9-.4.9-.9v-2.2c0-.5-.4-.9-.9-.9h0Z"/>
  <path class="cls-1" d="M96.8,72.7c0-7-3.7-10.8-10.6-10.8h-11.1c-.5,0-.9.4-.9.9v33.7c0,.5.4.9.9.9h2.5c.5,0,.9-.4.9-.9v-13h4.7l8.4,13.5c.2.3.5.4.8.4h2.8c.3,0,.6-.2.8-.5s.2-.6,0-.9l-7.8-12.6c5.7-.6,8.8-4.3,8.8-10.8ZM92.5,72.7h0c0,5.7-2.3,6.8-6.4,6.8h-7.7v-13.5h7.7c4,0,6.4,1.1,6.4,6.7Z"/>
  <path class="cls-1" d="M123.3,61.4h-.2c-5.3,0-11.7,2.2-11.7,12.7v11c0,10.6,6.4,12.8,11.7,12.8h.2c5.4,0,11.7-2.2,11.7-12.8v-11c0-10.5-6.4-12.7-11.7-12.7ZM130.8,74.1v11.1c0,6.1-2.2,8.7-7.5,8.7h-.2c-5.3,0-7.5-2.5-7.5-8.7v-11.1c0-6.1,2.2-8.6,7.5-8.6h.2c5.2,0,7.5,2.6,7.5,8.6Z"/>
</svg>