<svg width="465" height="243" viewBox="0 0 465 243" fill="none" xmlns="http://www.w3.org/2000/svg">
<g clip-path="url(#clip0_1999_15614)">
<path d="M406.16 150.649C406.16 157.269 404.7 162.779 401.83 167.029C398.99 171.289 395.42 174.489 391.21 176.549C387.04 178.609 382.88 179.659 378.86 179.659C372.18 179.659 366.6 177.359 362.3 172.829C358.02 168.279 355.86 162.069 355.86 154.369V84.7793H337V155.519C337 164.969 338.57 172.929 341.68 179.189C344.8 185.439 349.17 190.199 354.66 193.329C360.12 196.399 366.44 197.959 373.44 197.959C381.9 197.959 389.02 195.949 394.6 191.989C399.64 188.369 403.52 183.979 406.16 178.929V196.529H425.02V84.7793H406.16V150.659V150.649Z" fill="#4DA2FF"/>
<path d="M308.871 126.039C304.531 122.959 299.911 120.489 295.141 118.699C290.491 116.949 286.211 115.549 282.401 114.539L267.461 110.519C264.781 109.819 261.801 108.889 258.621 107.759C255.461 106.599 252.391 105.109 249.521 103.349C246.701 101.569 244.351 99.3395 242.531 96.7095C240.791 94.0795 239.911 90.8795 239.911 87.1895C239.911 82.7595 241.191 78.7495 243.721 75.2795C246.311 71.7695 249.981 68.9695 254.601 66.9595C259.311 64.9295 264.901 63.8995 271.211 63.8995C279.831 63.8995 287.191 65.8595 293.101 69.7395C298.911 73.5495 302.271 78.9795 303.091 85.8795L303.191 86.7595H322.261L322.221 85.7295C321.981 78.1695 319.601 71.3195 315.171 65.3795C310.801 59.4595 304.801 54.7395 297.351 51.3495C289.921 47.9195 281.311 46.1895 271.781 46.1895C262.251 46.1895 253.671 47.9495 246.001 51.4195C238.351 54.8595 232.161 59.7695 227.601 66.0295C223.061 72.2695 220.761 79.6795 220.761 88.0495C220.761 98.1595 224.241 106.459 231.091 112.719C237.841 118.889 247.111 123.699 258.641 127.019L276.651 132.169C281.721 133.579 286.511 135.249 290.881 137.129C295.151 138.969 298.641 141.379 301.251 144.309C303.781 147.149 305.071 150.919 305.071 155.509C305.071 160.589 303.561 165.089 300.571 168.889C297.551 172.689 293.381 175.709 288.191 177.869C282.961 179.999 276.951 181.079 270.351 181.079C264.681 181.079 259.301 180.229 254.391 178.559C249.571 176.859 245.521 174.259 242.371 170.829C239.291 167.389 237.501 162.969 237.051 157.689L236.971 156.779H216.691L216.771 157.849C217.351 165.999 219.891 173.269 224.321 179.439C228.791 185.609 234.981 190.479 242.731 193.919C250.491 197.339 259.791 199.079 270.361 199.079C281.701 199.079 291.491 197.149 299.441 193.339C307.481 189.509 313.681 184.269 317.851 177.759C322.081 171.239 324.231 163.849 324.231 155.779C324.231 148.769 322.761 142.759 319.871 137.909C317.001 133.089 313.301 129.099 308.871 126.029V126.039Z" fill="#4DA2FF"/>
<path d="M464.422 56.0491C464.422 52.6291 463.112 49.6691 460.542 47.2491C458.022 44.8391 454.962 43.6191 451.422 43.6191C447.882 43.6191 444.802 44.8391 442.232 47.2591C439.702 49.6791 438.422 52.6391 438.422 56.0591C438.422 59.4791 439.702 62.4291 442.242 64.8591C444.802 67.2691 447.892 68.4891 451.432 68.4891C454.972 68.4891 457.742 67.3791 460.182 65.1991L460.292 65.0991C460.382 65.0191 460.472 64.9391 460.562 64.8491L460.922 64.4991C463.262 62.1391 464.442 59.2991 464.442 56.0491H464.422Z" fill="#4DA2FF"/>
<path d="M460.7 84.7695H441.84V196.52H460.7V84.7695Z" fill="#4DA2FF"/>
<path fill-rule="evenodd" clip-rule="evenodd" d="M151.94 101.221C161.84 113.651 167.76 129.371 167.76 146.471C167.76 163.571 161.66 179.771 151.5 192.271L150.62 193.351L150.39 191.981C150.19 190.821 149.96 189.641 149.69 188.461C144.6 166.101 128.02 146.931 100.73 131.401C82.3 120.941 71.75 108.361 68.98 94.0509C67.19 84.8009 68.52 75.5109 71.09 67.5509C73.66 59.6009 77.48 52.9309 80.73 48.9209L91.35 35.9409C93.21 33.6609 96.7 33.6609 98.56 35.9409L151.95 101.221H151.94ZM168.73 88.2509L97.57 1.25086C96.21 -0.409141 93.67 -0.409141 92.31 1.25086L21.16 88.2509L20.93 88.5409C7.84 104.791 0 125.441 0 147.921C0 200.271 42.51 242.711 94.94 242.711C147.37 242.711 189.88 200.271 189.88 147.921C189.88 125.441 182.04 104.791 168.95 88.5509L168.72 88.2609L168.73 88.2509ZM38.19 100.941L44.55 93.1509L44.74 94.5909C44.89 95.7309 45.08 96.8709 45.3 98.0209C49.42 119.631 64.13 137.641 88.72 151.591C110.1 163.761 122.55 177.751 126.13 193.091C127.63 199.491 127.89 205.791 127.24 211.301L127.2 211.641L126.89 211.791C117.24 216.501 106.39 219.151 94.93 219.151C54.72 219.151 22.12 186.611 22.12 146.461C22.12 129.221 28.13 113.391 38.17 100.921L38.19 100.941Z" fill="#4DA2FF"/>
</g>
<defs>
<clipPath id="clip0_1999_15614">
<rect width="465" height="243" fill="white"/>
</clipPath>
</defs>
</svg>
